<svg width="52" height="52" viewBox="0 0 52 52" fill="none" xmlns="http://www.w3.org/2000/svg">
<path d="M45.3852 17.9942C45.3633 16.3532 45.0561 14.7285 44.4773 13.1928C43.9754 11.8975 43.2088 10.7211 42.2265 9.7388C41.2442 8.7565 40.0678 7.98991 38.7725 7.488C37.2566 6.91894 35.6551 6.61124 34.0362 6.578C31.9518 6.48483 31.291 6.45883 26 6.45883C20.709 6.45883 20.0308 6.45883 17.9617 6.578C16.3435 6.61148 14.7428 6.91918 13.2275 7.488C11.932 7.98956 10.7554 8.75603 9.77304 9.73837C8.7907 10.7207 8.02423 11.8973 7.52267 13.1928C6.95247 14.7076 6.64543 16.3087 6.61483 17.927C6.52167 20.0135 6.4935 20.6743 6.4935 25.9653C6.4935 31.2563 6.4935 31.9323 6.61483 34.0037C6.64733 35.6243 6.95283 37.2233 7.52267 38.7422C8.02507 40.0373 8.79211 41.2134 9.77478 42.1953C10.7574 43.1773 11.9341 43.9434 13.2297 44.4448C14.7408 45.0368 16.3418 45.3665 17.9638 45.4198C20.0503 45.513 20.7112 45.5412 26.0022 45.5412C31.2932 45.5412 31.9713 45.5412 34.0405 45.4198C35.6593 45.388 37.2609 45.081 38.7768 44.512C40.0718 44.0095 41.2479 43.2427 42.2302 42.2605C43.2124 41.2783 43.9792 40.1022 44.4817 38.8072C45.0515 37.2905 45.357 35.6915 45.3895 34.0687C45.4827 31.9843 45.5108 31.3235 45.5108 26.0303C45.5065 20.7393 45.5065 20.0677 45.3852 17.9942ZM25.987 35.971C20.4533 35.971 15.9705 31.4882 15.9705 25.9545C15.9705 20.4208 20.4533 15.938 25.987 15.938C28.6435 15.938 31.1913 16.9933 33.0697 18.8718C34.9482 20.7502 36.0035 23.298 36.0035 25.9545C36.0035 28.611 34.9482 31.1588 33.0697 33.0372C31.1913 34.9157 28.6435 35.971 25.987 35.971ZM36.4022 17.9032C36.0954 17.9035 35.7915 17.8432 35.508 17.726C35.2245 17.6087 34.9669 17.4366 34.75 17.2197C34.533 17.0028 34.361 16.7452 34.2437 16.4617C34.1264 16.1782 34.0662 15.8743 34.0665 15.5675C34.0665 15.2609 34.1269 14.9573 34.2442 14.6741C34.3615 14.3908 34.5335 14.1335 34.7503 13.9167C34.9671 13.6999 35.2244 13.5279 35.5077 13.4106C35.7909 13.2933 36.0945 13.2329 36.4011 13.2329C36.7077 13.2329 37.0112 13.2933 37.2945 13.4106C37.5777 13.5279 37.8351 13.6999 38.0519 13.9167C38.2687 14.1335 38.4406 14.3908 38.558 14.6741C38.6753 14.9573 38.7357 15.2609 38.7357 15.5675C38.7357 16.8588 37.6913 17.9032 36.4022 17.9032Z" fill="#B9BC1D"/>
<path d="M25.987 32.461C29.5804 32.461 32.4935 29.5479 32.4935 25.9545C32.4935 22.3611 29.5804 19.448 25.987 19.448C22.3936 19.448 19.4805 22.3611 19.4805 25.9545C19.4805 29.5479 22.3936 32.461 25.987 32.461Z" fill="#B9BC1D"/>
</svg>
