<svg width="52" height="52" viewBox="0 0 52 52" fill="none" xmlns="http://www.w3.org/2000/svg">
<path d="M40.5817 11.7217L37.8083 13.8883L26 22.6633L14.1917 13.8017L11.4183 11.635C10.765 11.0945 9.96744 10.7576 9.12448 10.666C8.28151 10.5743 7.43018 10.732 6.67597 11.1195C5.92175 11.507 5.29779 12.1073 4.88139 12.8459C4.46498 13.5846 4.27444 14.4291 4.33335 15.275V40.3867C4.33335 41.1682 4.6438 41.9177 5.19641 42.4703C5.74902 43.0229 6.49851 43.3333 7.28002 43.3333H14.1917V26.6067L26 35.4683L37.8083 26.6067V43.3333H44.72C45.5015 43.3333 46.251 43.0229 46.8036 42.4703C47.3562 41.9177 47.6667 41.1682 47.6667 40.3867V15.275C47.7074 14.4364 47.5036 13.6041 47.0801 12.8792C46.6566 12.1542 46.0316 11.5679 45.2811 11.1916C44.5306 10.8152 43.687 10.6649 42.8527 10.759C42.0184 10.8531 41.2294 11.1876 40.5817 11.7217V11.7217Z" fill="#B9BC1D"/>
</svg>
