<svg width="710" height="293" viewBox="0 0 710 293" fill="none" xmlns="http://www.w3.org/2000/svg">
<path d="M466.415 263.198H243.585C243.43 263.198 243.281 263.137 243.171 263.027C243.062 262.917 243 262.769 243 262.614C243 262.458 243.062 262.31 243.171 262.2C243.281 262.09 243.43 262.029 243.585 262.029H466.415C466.57 262.029 466.719 262.09 466.829 262.2C466.938 262.31 467 262.458 467 262.614C467 262.769 466.938 262.917 466.829 263.027C466.719 263.137 466.57 263.198 466.415 263.198Z" fill="#B9BC1D"/>
<path d="M359.421 186.582C368.142 186.582 375.212 179.512 375.212 170.791C375.212 162.07 368.142 155 359.421 155C350.7 155 343.63 162.07 343.63 170.791C343.63 179.512 350.7 186.582 359.421 186.582Z" fill="#B9BC1D"/>
<path d="M344.417 272.162L343.999 265.004L371.409 259.983L372.026 270.548L344.417 272.162Z" fill="#FFB8B8"/>
<path d="M345.745 259.772L346.552 273.577L337.86 274.085L336.545 251.588C337.686 251.521 338.83 251.68 339.91 252.055C340.99 252.43 341.986 253.015 342.84 253.775C343.694 254.534 344.39 255.455 344.889 256.484C345.387 257.513 345.678 258.63 345.745 259.772Z" fill="#2F2E41"/>
<path d="M356.339 272.096L351.786 277.636L328.253 262.711L334.973 254.536L356.339 272.096Z" fill="#FFB8B8"/>
<path d="M346.951 280.291L355.731 269.609L362.458 275.137L348.149 292.546C347.265 291.82 346.534 290.927 345.995 289.919C345.457 288.91 345.123 287.805 345.012 286.667C344.901 285.529 345.015 284.38 345.347 283.286C345.68 282.192 346.225 281.175 346.951 280.291Z" fill="#333333"/>
<path d="M343.237 246.337L340.125 261.005C340.054 261.342 340.058 261.692 340.137 262.028C340.216 262.364 340.369 262.678 340.584 262.948C340.799 263.218 341.072 263.437 341.381 263.589C341.691 263.742 342.031 263.824 342.376 263.829L372.963 264.322C373.308 264.328 373.649 264.257 373.964 264.115C374.278 263.973 374.557 263.764 374.781 263.501C375.004 263.239 375.167 262.93 375.258 262.598C375.348 262.265 375.364 261.916 375.304 261.577L372.629 246.416C372.533 245.874 372.25 245.384 371.829 245.03C371.407 244.677 370.875 244.483 370.325 244.483H345.525C344.989 244.483 344.469 244.667 344.052 245.005C343.636 245.342 343.348 245.813 343.237 246.337Z" fill="#2F2E41"/>
<path d="M348.309 251.501C348.309 251.501 318.481 232.786 312.632 242.728C309.708 247.7 311.17 252.525 313.364 256.107C315.399 259.369 318.32 261.984 321.787 263.646L345.969 275.48L354.742 266.123L348.894 260.859L348.309 251.501Z" fill="#333333"/>
<path d="M363.515 248.577C363.515 248.577 402.116 237.465 394.512 258.52C386.909 279.574 358.251 271.386 358.251 271.386L355.327 262.614L365.27 255.595L363.515 248.577Z" fill="#666666"/>
<path d="M359.619 188.762C367.552 188.762 373.984 182.33 373.984 174.397C373.984 166.464 367.552 160.032 359.619 160.032C351.686 160.032 345.254 166.464 345.254 174.397C345.254 182.33 351.686 188.762 359.619 188.762Z" fill="#FFB8B8"/>
<path d="M360.372 250.898C354.403 250.808 348.464 250.026 342.676 248.567L342.505 248.52L334.489 211.648C333.768 208.408 334.258 205.016 335.867 202.112C337.476 199.209 340.093 196.996 343.222 195.89C352.89 192.421 363.427 192.211 373.225 195.291H373.225C376.513 196.35 379.281 198.61 380.976 201.62C382.67 204.63 383.168 208.168 382.37 211.529L373.416 248.489L373.29 248.549C369.57 250.312 364.917 250.898 360.372 250.898Z" fill="#CCCCCC"/>
<path d="M349.604 253.763C349.895 252.953 350.36 252.218 350.966 251.608C351.572 250.998 352.305 250.529 353.112 250.233C353.919 249.936 354.781 249.821 355.638 249.894C356.495 249.967 357.325 250.227 358.07 250.656L373.854 236.956L375.282 247.722L360.075 259.081C359.272 260.285 358.055 261.153 356.654 261.52C355.254 261.887 353.768 261.728 352.477 261.072C351.187 260.417 350.181 259.311 349.652 257.963C349.122 256.616 349.105 255.121 349.604 253.763Z" fill="#FFB8B8"/>
<path d="M364.657 256.751C364.4 256.75 364.145 256.713 363.899 256.639C363.5 256.523 363.134 256.313 362.833 256.026C362.531 255.74 362.303 255.385 362.166 254.992L360.261 249.595C360.083 249.096 360.06 248.555 360.196 248.043C360.332 247.531 360.621 247.072 361.023 246.728L382.527 233.817L374.051 196L374.266 195.948C374.354 195.926 383.039 193.949 386.598 203.44C389.091 210.087 398.314 224.54 397.663 234.307C397.539 236.26 396.761 238.115 395.453 239.572C394.146 241.029 392.385 242.002 390.456 242.335L366.25 256.204C365.794 256.558 365.234 256.75 364.657 256.751Z" fill="#CCCCCC"/>
<path d="M367.069 252.48C366.778 251.671 366.313 250.935 365.707 250.325C365.101 249.715 364.369 249.246 363.561 248.95C362.754 248.653 361.892 248.538 361.035 248.611C360.179 248.684 359.348 248.944 358.603 249.373L342.82 235.673L341.392 246.439L356.599 257.798C357.402 259.003 358.619 259.87 360.019 260.237C361.42 260.604 362.906 260.445 364.196 259.789C365.487 259.134 366.492 258.028 367.022 256.68C367.551 255.333 367.568 253.838 367.069 252.48Z" fill="#FFB8B8"/>
<path d="M353.6 256.751C353.023 256.75 352.463 256.558 352.007 256.204L326.046 243.505C324.117 243.172 322.357 242.199 321.049 240.742C319.741 239.285 318.963 237.43 318.839 235.477C318.189 225.71 329.167 210.087 331.659 203.44C335.218 193.949 343.903 195.926 343.991 195.948L344.207 196L333.975 234.987L357.234 246.728C357.636 247.072 357.925 247.531 358.061 248.043C358.197 248.555 358.174 249.096 357.996 249.595L356.091 254.992C355.954 255.385 355.726 255.74 355.424 256.026C355.123 256.313 354.757 256.523 354.358 256.639C354.112 256.713 353.857 256.75 353.6 256.751Z" fill="#CCCCCC"/>
<path d="M384.57 262.614H332.518C331.432 262.612 330.392 262.181 329.624 261.413C328.857 260.646 328.425 259.605 328.424 258.52V229.862C328.425 228.776 328.857 227.736 329.624 226.968C330.392 226.201 331.432 225.769 332.518 225.768H384.57C385.655 225.769 386.696 226.201 387.463 226.968C388.231 227.736 388.663 228.776 388.664 229.862V258.52C388.663 259.605 388.231 260.646 387.463 261.413C386.696 262.181 385.655 262.612 384.57 262.614Z" fill="#B9BC1D"/>
<path d="M345.11 173.812C344.259 171.653 345.656 169.079 347.728 168.033C349.8 166.987 352.301 167.186 354.517 167.876C356.38 168.455 358.126 169.353 359.943 170.062C361.734 170.856 363.691 171.205 365.647 171.078C367.585 170.859 369.515 169.772 370.308 167.99C371.13 166.143 370.571 163.888 369.305 162.312C367.957 160.788 366.214 159.667 364.268 159.075C359.994 157.569 355.057 157.525 351.09 159.714C347.122 161.902 344.426 166.562 345.246 171.019" fill="#CCCCCC"/>
<path d="M288.798 31.9688C287.854 31.5911 287.288 31.1191 287.099 30.5527C287.005 29.8919 286.958 29.2311 286.958 28.5703C286.958 27.4375 287.099 26.3991 287.382 25.4551C287.666 24.4167 288.138 23.2367 288.798 21.915C291.63 22.1038 294.415 22.151 297.153 22.0566C299.891 21.8678 302.628 21.6318 305.366 21.3486C308.103 21.0654 310.841 20.8294 313.579 20.6406C316.316 20.3574 319.101 20.2158 321.933 20.2158C322.688 20.2158 323.538 20.2158 324.482 20.2158C325.52 20.1214 326.512 20.1214 327.456 20.2158C328.494 20.2158 329.485 20.3574 330.429 20.6406C331.468 20.9238 332.317 21.3486 332.978 21.915C333.073 21.915 333.12 22.0566 333.12 22.3398V23.1895C333.12 23.3783 333.073 23.5199 332.978 23.6143C332.317 23.6143 331.137 23.7087 329.438 23.8975C327.739 24.0863 325.945 24.2751 324.057 24.4639C322.169 24.5583 320.376 24.6999 318.676 24.8887C316.977 25.0775 315.75 25.2191 314.995 25.3135C313.956 25.5023 312.399 25.7383 310.322 26.0215C308.339 26.2103 306.31 26.5879 304.233 27.1543C302.156 27.6263 300.268 28.2399 298.569 28.9951C296.87 29.7503 295.784 30.7415 295.312 31.9688V33.3848C295.312 34.14 295.265 34.9896 295.171 35.9336C295.171 36.7832 295.171 37.5856 295.171 38.3408V40.04C295.171 43.0609 295.171 45.7041 295.171 47.9697C295.265 50.141 295.359 52.4066 295.454 54.7666C295.643 57.0322 295.831 59.4867 296.02 62.1299C296.209 64.6787 296.492 67.7467 296.87 71.334H298.569L329.721 60.1475V64.6787L296.87 79.5469C296.775 80.3021 296.728 81.0101 296.728 81.6709V84.6445C296.728 88.1374 297.011 91.5358 297.578 94.8398C298.239 98.1439 298.569 101.542 298.569 105.035V105.743C298.475 105.838 298.286 106.074 298.003 106.451L297.011 107.442C296.634 107.82 296.256 108.15 295.879 108.434C295.595 108.717 295.407 108.906 295.312 109C294.274 108.528 293.471 107.537 292.905 106.026C292.338 104.422 292.055 103.242 292.055 102.486L288.798 31.9688ZM338.716 74.0244C338.716 71.6644 339.471 69.5876 340.981 67.7939C342.492 66.0003 344.71 65.1035 347.637 65.1035C350.28 65.1035 352.451 65.5755 354.15 66.5195C355.944 67.3691 356.841 69.0212 356.841 71.4756C356.841 72.986 356.558 74.4492 355.991 75.8652C355.425 77.2812 354.575 78.5557 353.442 79.6885C352.31 80.8213 351.035 81.7181 349.619 82.3789C348.203 83.0397 346.598 83.3701 344.805 83.3701C343.294 83.3701 342.114 83.0869 341.265 82.5205C340.509 81.8597 339.943 81.0573 339.565 80.1133C339.188 79.1693 338.952 78.1781 338.857 77.1396C338.763 76.0068 338.716 74.9684 338.716 74.0244ZM369.517 21.915C368.667 22.5758 367.865 22.8118 367.11 22.623C366.449 22.3398 365.93 21.915 365.552 21.3486C365.175 20.6878 364.891 19.9798 364.703 19.2246C364.514 18.375 364.419 17.6198 364.419 16.959C364.419 16.487 364.703 15.6374 365.269 14.4102C365.835 13.0885 366.496 11.7669 367.251 10.4453C368.007 9.1237 368.715 7.94368 369.375 6.90527C370.131 5.86686 370.603 5.34766 370.791 5.34766C374.662 5.34766 378.627 5.72526 382.686 6.48047C386.84 7.14128 390.899 8.17969 394.864 9.5957C398.828 10.9173 402.557 12.6637 406.05 14.835C409.543 17.0062 412.611 19.6022 415.254 22.623C417.898 25.5495 419.974 28.9479 421.485 32.8184C422.995 36.5944 423.75 40.8424 423.75 45.5625C423.75 49.9993 422.712 54.4834 420.635 59.0146C418.653 63.4515 415.962 67.5107 412.564 71.1924C409.165 74.7796 405.295 77.7533 400.953 80.1133C396.61 82.3789 392.126 83.5117 387.5 83.5117V76.998C391.371 76.998 395.194 76.054 398.97 74.166C402.746 72.1836 406.097 69.682 409.024 66.6611C411.95 63.5459 414.31 60.1003 416.104 56.3242C417.992 52.4538 418.936 48.6305 418.936 44.8545C418.936 40.8896 417.898 37.0664 415.821 33.3848C413.838 29.6087 411.242 26.2575 408.033 23.3311C404.917 20.4046 401.425 18.0446 397.554 16.251C393.684 14.4574 389.86 13.5605 386.084 13.5605C384.102 13.5605 382.356 13.6549 380.845 13.8438C379.335 13.9382 377.73 14.4574 376.031 15.4014V17.667C376.031 18.611 375.983 19.6494 375.889 20.7822C375.889 21.915 375.889 23.0007 375.889 24.0391V26.1631C375.889 31.3551 375.936 36.3584 376.031 41.1729C376.219 45.8929 376.455 50.6602 376.739 55.4746C377.022 60.1947 377.352 65.0563 377.73 70.0596C378.202 75.0628 378.721 80.3965 379.287 86.0605C379.287 86.5326 379.429 87.6654 379.712 89.459C380.09 91.1582 380.467 93.0462 380.845 95.123C381.223 97.1055 381.553 98.9935 381.836 100.787C382.214 102.486 382.45 103.572 382.544 104.044C382.544 104.138 382.544 104.28 382.544 104.469C382.639 104.658 382.686 104.799 382.686 104.894C382.686 104.988 382.639 105.082 382.544 105.177C382.544 105.271 382.544 105.366 382.544 105.46V105.743C382.45 105.838 382.261 106.074 381.978 106.451C381.695 106.734 381.364 107.065 380.987 107.442C380.703 107.82 380.373 108.15 379.995 108.434C379.712 108.717 379.476 108.906 379.287 109L377.73 107.301C377.541 107.206 377.305 106.451 377.022 105.035C376.739 103.619 376.408 101.967 376.031 100.079C375.653 98.0967 375.275 96.1143 374.898 94.1318C374.615 92.1494 374.426 90.5446 374.331 89.3174C374.143 87.6182 373.907 85.0221 373.623 81.5293C373.435 78.0365 373.151 74.0716 372.774 69.6348C372.396 65.1979 372.019 60.5723 371.641 55.7578C371.358 50.849 371.075 46.1761 370.791 41.7393C370.508 37.3024 370.225 33.3376 369.942 29.8447C369.753 26.2575 369.611 23.6143 369.517 21.915Z" fill="#B9BC1D"/>
</svg>
