<svg width="81" height="31" viewBox="0 0 81 31" fill="none" xmlns="http://www.w3.org/2000/svg">
<rect x="2.5" y="2.5" width="76" height="26" rx="13" stroke="#B9BC1D" stroke-width="5"/>
<path d="M12.9364 23.3711C12.9546 23.2253 12.9729 22.9883 12.9911 22.6602C13.0276 22.332 13.064 21.9857 13.1005 21.6211C13.1369 21.2565 13.1643 20.9102 13.1825 20.582C13.219 20.2357 13.2372 19.9987 13.2372 19.8711C13.2372 19.5794 13.2372 19.1328 13.2372 18.5312C13.2554 17.9115 13.2645 17.2188 13.2645 16.4531V11.5859C13.2645 10.8203 13.2554 10.1367 13.2372 9.53516C13.2372 8.91536 13.2372 8.45052 13.2372 8.14062C13.3101 8.01302 13.3739 7.93099 13.4286 7.89453C13.4833 7.85807 13.5744 7.83984 13.702 7.83984H13.8934C13.9481 7.8763 14.0393 7.9401 14.1669 8.03125C14.2945 8.10417 14.3583 8.14062 14.3583 8.14062V22.332C14.413 22.332 14.5041 22.3411 14.6317 22.3594C14.7593 22.3776 14.896 22.3958 15.0419 22.4141C15.2059 22.4141 15.3518 22.4141 15.4794 22.4141C15.6252 22.4141 15.7164 22.4141 15.7528 22.4141C15.9533 22.3958 16.245 22.3594 16.6278 22.3047C17.0289 22.25 17.4846 22.1953 17.995 22.1406C18.5054 22.0859 19.0341 22.0312 19.5809 21.9766C20.1278 21.9036 20.6473 21.8398 21.1395 21.7852C21.6499 21.7122 22.0966 21.6484 22.4794 21.5938C22.8804 21.5391 23.1812 21.4935 23.3817 21.457C23.6369 21.3294 23.8557 21.2474 24.038 21.2109C24.2203 21.1562 24.439 21.1289 24.6942 21.1289C24.9312 21.1289 25.0861 21.2109 25.1591 21.375C25.2502 21.5391 25.2958 21.7214 25.2958 21.9219C25.2958 22.0859 25.2593 22.2318 25.1864 22.3594C25.1317 22.4688 25.0588 22.5964 24.9677 22.7422C24.038 22.651 23.0992 22.6602 22.1513 22.7695C21.2216 22.8789 20.2919 23.0339 19.3622 23.2344C18.4325 23.4167 17.5119 23.5898 16.6005 23.7539C15.689 23.918 14.7867 24 13.8934 24C13.7658 24 13.5927 23.9271 13.3739 23.7812C13.1552 23.6354 13.0093 23.4987 12.9364 23.3711ZM25.3647 16.3984C25.4558 15.651 25.5379 14.8945 25.6108 14.1289C25.7019 13.3451 25.8113 12.5794 25.9389 11.832C26.0665 11.0664 26.2397 10.3464 26.4584 9.67188C26.6954 8.97917 27.0144 8.38672 27.4155 7.89453C27.8347 7.38411 28.3543 6.97396 28.9741 6.66406C29.5939 6.35417 30.3595 6.19922 31.2709 6.19922C32.0183 6.19922 32.6746 6.36328 33.2397 6.69141C33.823 7.0013 34.3152 7.42057 34.7163 7.94922C35.1355 8.47786 35.4728 9.08854 35.728 9.78125C35.9832 10.4557 36.1837 11.1484 36.3295 11.8594C36.4936 12.5703 36.6121 13.2812 36.685 13.9922C36.7579 14.7031 36.7944 15.3503 36.7944 15.9336C36.7944 16.8997 36.6394 17.8659 36.3295 18.832C36.0196 19.7799 35.573 20.6458 34.9897 21.4297C34.4246 22.1953 33.7228 22.8242 32.8842 23.3164C32.0639 23.7904 31.1251 24.0273 30.0678 24.0273C29.1564 24.0273 28.3998 23.7812 27.7983 23.2891C27.1967 22.7969 26.7136 22.1862 26.3491 21.457C25.9845 20.7096 25.7293 19.9076 25.5834 19.0508C25.4376 18.194 25.3647 17.4102 25.3647 16.6992V16.3984ZM26.267 16.6445C26.267 17.2826 26.3308 17.9844 26.4584 18.75C26.586 19.4974 26.8048 20.1901 27.1147 20.8281C27.4246 21.4661 27.8439 22.0039 28.3725 22.4414C28.9194 22.8607 29.603 23.0703 30.4233 23.0703C31.3894 23.0703 32.2097 22.8242 32.8842 22.332C33.5769 21.8398 34.142 21.2292 34.5795 20.5C35.0353 19.7526 35.3634 18.9414 35.5639 18.0664C35.7644 17.1914 35.8647 16.3711 35.8647 15.6055C35.8647 14.8945 35.81 14.056 35.7006 13.0898C35.5913 12.1055 35.3634 11.1758 35.017 10.3008C34.6889 9.42578 34.2058 8.6875 33.5678 8.08594C32.948 7.46615 32.1459 7.15625 31.1616 7.15625C30.4689 7.15625 29.8673 7.32031 29.3569 7.64844C28.8465 7.97656 28.409 8.41406 28.0444 8.96094C27.6798 9.48958 27.379 10.1003 27.142 10.793C26.9233 11.4674 26.7501 12.1602 26.6225 12.8711C26.4949 13.5638 26.4038 14.2474 26.3491 14.9219C26.2944 15.5781 26.267 16.1523 26.267 16.6445ZM48.8398 21.6484C48.3477 22.013 47.8646 22.3411 47.3906 22.6328C46.9167 22.9245 46.4245 23.1706 45.9141 23.3711C45.4219 23.5534 44.9023 23.6901 44.3555 23.7812C43.8268 23.8542 43.2526 23.8906 42.6328 23.8906C41.7214 23.8906 40.9375 23.7357 40.2812 23.4258C39.625 23.1159 39.0781 22.6875 38.6406 22.1406C38.2214 21.5938 37.9115 20.9557 37.7109 20.2266C37.5104 19.4792 37.4102 18.668 37.4102 17.793C37.4102 16.8268 37.4922 15.7604 37.6562 14.5938C37.8203 13.4089 38.0846 12.2422 38.4492 11.0938C38.832 9.92708 39.3242 8.84245 39.9258 7.83984C40.5456 6.83724 41.3021 6.03516 42.1953 5.43359C42.2318 5.43359 42.2773 5.43359 42.332 5.43359C42.4049 5.43359 42.4596 5.43359 42.4961 5.43359C42.6784 5.43359 42.8333 5.47005 42.9609 5.54297C43.0885 5.61589 43.1523 5.74349 43.1523 5.92578C43.1523 5.96224 43.1432 5.9987 43.125 6.03516C43.125 6.07161 43.125 6.09896 43.125 6.11719C42.3047 6.82812 41.5938 7.63021 40.9922 8.52344C40.4089 9.41667 39.9167 10.3646 39.5156 11.3672C39.1328 12.3516 38.8411 13.3815 38.6406 14.457C38.4583 15.5143 38.3672 16.5898 38.3672 17.6836C38.3672 18.431 38.4583 19.1237 38.6406 19.7617C38.8411 20.3997 39.1419 20.9557 39.543 21.4297C39.944 21.9036 40.4362 22.2682 41.0195 22.5234C41.6029 22.7786 42.2773 22.9062 43.043 22.9062C43.2253 22.9062 43.4896 22.8698 43.8359 22.7969C44.2005 22.724 44.6016 22.6237 45.0391 22.4961C45.4766 22.3685 45.9232 22.2135 46.3789 22.0312C46.8346 21.8307 47.2357 21.612 47.582 21.375C47.9466 21.138 48.2474 20.8828 48.4844 20.6094C48.7214 20.3359 48.8398 20.0352 48.8398 19.707V14.5117C48.7852 14.5117 48.6667 14.5026 48.4844 14.4844C48.3021 14.4661 48.1107 14.4479 47.9102 14.4297C47.7096 14.3932 47.5182 14.3659 47.3359 14.3477C47.1536 14.3294 47.026 14.3294 46.9531 14.3477C46.862 14.3659 46.5703 14.4297 46.0781 14.5391C45.5859 14.6302 45.0391 14.7487 44.4375 14.8945C43.8359 15.0221 43.2344 15.1589 42.6328 15.3047C42.0312 15.4323 41.5664 15.5326 41.2383 15.6055C41.2018 15.6055 41.138 15.6237 41.0469 15.6602C40.9557 15.6966 40.8555 15.7331 40.7461 15.7695C40.6549 15.7878 40.5547 15.8151 40.4453 15.8516C40.3542 15.888 40.2995 15.9062 40.2812 15.9062C40.2448 15.9245 40.2174 15.9336 40.1992 15.9336H40.1172C39.9349 15.9336 39.8073 15.8424 39.7344 15.6602C39.6797 15.4596 39.6523 15.2865 39.6523 15.1406C39.6523 15.0312 39.6706 14.931 39.707 14.8398C39.7617 14.7487 39.8529 14.6849 39.9805 14.6484L48.2383 13.0625C48.2747 13.0625 48.4023 13.0625 48.6211 13.0625C48.8398 13.0625 49.013 13.0625 49.1406 13.0625C49.2318 13.0625 49.3503 13.0534 49.4961 13.0352C49.6419 13.0169 49.7786 13.0169 49.9062 13.0352C50.0521 13.0534 50.1797 13.1081 50.2891 13.1992C50.3984 13.2721 50.4531 13.3906 50.4531 13.5547V13.6914L50.125 15.2773V26.2695C49.5781 26.2695 49.2591 25.987 49.168 25.4219C49.1497 25.276 49.1224 25.0208 49.0859 24.6562C49.0495 24.3099 49.013 23.9362 48.9766 23.5352C48.9401 23.1159 48.9036 22.7331 48.8672 22.3867C48.849 22.0404 48.8398 21.7943 48.8398 21.6484ZM51.9986 23.6719C51.9804 23.3255 51.9348 22.7786 51.8619 22.0312C51.789 21.2656 51.7069 20.3997 51.6158 19.4336C51.5429 18.4674 51.4517 17.4557 51.3423 16.3984C51.2512 15.3411 51.1601 14.3385 51.0689 13.3906C50.996 12.4245 50.9231 11.5586 50.8502 10.793C50.7955 10.0273 50.759 9.47135 50.7408 9.125V8.93359C50.7408 8.84245 50.7317 8.74219 50.7134 8.63281C50.7134 8.50521 50.7134 8.38672 50.7134 8.27734V7.78516C50.7134 7.67578 50.7134 7.56641 50.7134 7.45703C50.7317 7.32943 50.7408 7.22005 50.7408 7.12891V6.91016C50.7772 6.72786 50.8593 6.61849 50.9869 6.58203C51.1145 6.54557 51.2421 6.52734 51.3697 6.52734C51.4061 6.52734 51.4608 6.53646 51.5338 6.55469C51.6067 6.55469 51.6614 6.55469 51.6978 6.55469L52.9556 21.7852C52.9739 21.8398 52.9921 21.9219 53.0103 22.0312C53.0468 22.1406 53.0832 22.2682 53.1197 22.4141C53.1744 22.5599 53.2108 22.6875 53.2291 22.7969C53.2473 22.9062 53.2655 22.9883 53.2838 23.043V23.207C53.2838 23.3164 53.2473 23.4167 53.1744 23.5078C53.1015 23.599 53.0103 23.681 52.9009 23.7539C52.7916 23.8268 52.6822 23.8906 52.5728 23.9453C52.4817 23.9818 52.3996 24 52.3267 24C52.272 24 52.1991 23.9635 52.108 23.8906C52.0351 23.7995 51.9986 23.7266 51.9986 23.6719ZM54.255 11.3945C54.255 11.0846 54.2094 10.793 54.1183 10.5195C54.0454 10.2279 53.9542 9.95443 53.8448 9.69922C53.7355 9.42578 53.6352 9.16146 53.5441 8.90625C53.4711 8.63281 53.4347 8.35026 53.4347 8.05859C53.4347 7.94922 53.462 7.79427 53.5167 7.59375C53.5896 7.375 53.6717 7.16536 53.7628 6.96484C53.8722 6.74609 53.9816 6.54557 54.0909 6.36328C54.2003 6.18099 54.3097 6.0625 54.4191 6.00781C54.4737 6.02604 54.5558 6.19922 54.6652 6.52734C54.7928 6.85547 54.9204 7.22917 55.048 7.64844C55.1756 8.04948 55.2941 8.44141 55.4034 8.82422C55.531 9.1888 55.6222 9.40755 55.6769 9.48047C55.7862 9.66276 55.9685 9.9362 56.2237 10.3008C56.4972 10.6471 56.798 11.0391 57.1261 11.4766C57.4542 11.9141 57.8006 12.3698 58.1652 12.8438C58.5297 13.3177 58.8761 13.7734 59.2042 14.2109C59.5506 14.6484 59.8605 15.0404 60.1339 15.3867C60.4073 15.7331 60.6079 15.9883 60.7355 16.1523C60.7902 16.2253 60.9724 16.4076 61.2823 16.6992C61.5922 16.9909 61.9568 17.3281 62.3761 17.7109L63.6066 18.8047C64.0076 19.1693 64.3266 19.4518 64.5636 19.6523C64.5818 19.6888 64.673 19.7799 64.837 19.9258C65.0011 20.0534 65.1652 20.1992 65.3292 20.3633C65.5115 20.5273 65.6847 20.6823 65.8487 20.8281C66.0128 20.9557 66.1131 21.0286 66.1495 21.0469C66.2589 20.6094 66.2862 20.099 66.2316 19.5156C66.1769 18.9323 66.1495 18.4036 66.1495 17.9297C66.1495 17.0729 66.0948 16.2253 65.9855 15.3867C65.8761 14.5299 65.7576 13.6823 65.63 12.8438C65.5206 12.0052 65.4112 11.1667 65.3019 10.3281C65.1925 9.47135 65.1378 8.61458 65.1378 7.75781V7.45703C65.1378 7.3112 65.1378 7.16536 65.1378 7.01953C65.156 6.85547 65.1652 6.70964 65.1652 6.58203V6.30859C65.2928 6.08984 65.4568 5.98047 65.6573 5.98047C65.8761 5.98047 66.0219 6.08073 66.0948 6.28125C66.186 6.46354 66.2316 6.67318 66.2316 6.91016C66.2498 7.12891 66.2316 7.34766 66.1769 7.56641C66.1404 7.76693 66.1222 7.8763 66.1222 7.89453L67.7355 21.5391C67.7355 21.7943 67.6717 21.9948 67.5441 22.1406C67.4165 22.2865 67.2706 22.4141 67.1066 22.5234C66.9425 22.6146 66.7693 22.6784 66.587 22.7148C66.4047 22.7513 66.2498 22.7786 66.1222 22.7969C66.104 22.8151 66.0857 22.8242 66.0675 22.8242H65.9581C65.8487 22.8242 65.7303 22.7786 65.6027 22.6875C65.4933 22.5781 65.3839 22.4596 65.2745 22.332C65.1834 22.2044 65.1014 22.0677 65.0284 21.9219C64.9555 21.7578 64.9008 21.6302 64.8644 21.5391C64.6821 21.3385 64.3813 21.0378 63.962 20.6367C63.561 20.2174 63.1144 19.7526 62.6222 19.2422C62.13 18.7318 61.6014 18.194 61.0362 17.6289C60.4894 17.0456 59.9607 16.4896 59.4503 15.9609C58.9581 15.4323 58.5115 14.9583 58.1105 14.5391C57.7277 14.1198 57.4451 13.8099 57.2628 13.6094C57.1717 13.5182 57.0167 13.3451 56.798 13.0898C56.5792 12.8164 56.3514 12.5247 56.1144 12.2148C55.8956 11.9049 55.6769 11.6133 55.4581 11.3398C55.2576 11.0664 55.1209 10.8659 55.048 10.7383V11.6953C55.048 12.151 55.0389 12.6341 55.0206 13.1445C55.0206 13.6367 55.0206 14.1107 55.0206 14.5664V15.5234C55.0206 17.0547 55.0753 18.5677 55.1847 20.0625C55.2941 21.5573 55.3487 23.0703 55.3487 24.6016V24.7109C55.3123 24.7656 55.212 24.875 55.048 25.0391C54.9021 25.2031 54.7928 25.3034 54.7198 25.3398L54.255 25.0117V11.3945Z" fill="#B9BC1D"/>
</svg>
